<?xml version="1.0" encoding="utf-8"?>
<!-- Generator: Adobe Illustrator 19.1.1, SVG Export Plug-In . SVG Version: 6.00 Build 0)  -->
<svg version="1.1" id="Capa_1" xmlns="http://www.w3.org/2000/svg" xmlns:xlink="http://www.w3.org/1999/xlink" x="0px" y="0px"
	 width="100px" height="101.5px" viewBox="-345 244 100 101.5" style="enable-background:new -345 244 100 101.5;"
	 xml:space="preserve">
<style type="text/css">
	.st0{fill:#FFFFFF;}
</style>
<path class="st0" d="M-260.1,310.4c-1.2-1.4-2.9-3.7-4.2-7c-1.3-3.3-1.9-6.9-1.9-10.7c0-11.4-6.9-21.8-17.3-26.4
	c0.7-1.5,1-3.2,1-4.9c0-6.9-5.6-12.5-12.5-12.5s-12.5,5.6-12.5,12.5c0,1.7,0.3,3.4,1,4.9c-10.4,4.5-17.3,15-17.3,26.4
	c0,3.8-0.7,7.4-1.9,10.7c-1.3,3.3-3,5.6-4.2,7c-1.3,1.4-2.6,4.1-2.6,6.4v3.4c0,3.4,2.8,6.2,6.2,6.2l15.5,0
	c1.7,7.3,8.3,12.5,15.8,12.5s14.1-5.2,15.8-12.5h15.7c3.3,0,6-2.8,6-6.2v-3.4C-257.5,314.5-258.9,311.9-260.1,310.4z M-262.4,320.2
	c0,0.7-0.5,1.3-1.1,1.3h-16.3c-1.9,0-3.7,1.5-4,3.4c-1,5.3-5.7,9.1-11.1,9.1s-10.1-3.8-11.1-9.1c-0.4-1.9-2.1-3.4-4-3.4h-16.2
	c-0.7,0-1.3-0.6-1.3-1.3v-3.4h0c0-0.8,0.6-2.3,1.4-3.2c1.4-1.7,3.5-4.5,5.1-8.4c1.5-3.8,2.3-8.1,2.3-12.5c0-10.1,6.4-19.1,15.9-22.5
	c0.9-0.3,1.7-1,2-1.9c0.3-0.9,0.2-1.9-0.4-2.8c-0.8-1.2-1.2-2.6-1.2-4.1c0-4.2,3.4-7.5,7.5-7.5c4.2,0,7.5,3.4,7.5,7.5
	c0,1.5-0.4,2.9-1.2,4.1c-0.6,0.9-0.7,1.9-0.4,2.8c0.3,0.9,1,1.6,2,2c9.5,3.4,15.9,12.4,15.9,22.5c0,4.4,0.8,8.6,2.3,12.5
	c1.6,3.9,3.6,6.7,5.1,8.4c0.8,0.9,1.4,2.5,1.4,3.2L-262.4,320.2L-262.4,320.2z"/>
</svg>
