<?xml version="1.0" encoding="utf-8"?>
<!-- Generator: Adobe Illustrator 19.1.1, SVG Export Plug-In . SVG Version: 6.00 Build 0)  -->
<svg version="1.1" id="Capa_1" xmlns="http://www.w3.org/2000/svg" xmlns:xlink="http://www.w3.org/1999/xlink" x="0px" y="0px"
	 width="100px" height="104px" viewBox="-345 244 100 104" style="enable-background:new -345 244 100 104;" xml:space="preserve">
<path d="M-329.7,323h7.8c4.1,0,7.5-3.4,7.5-7.5v-21c0-4.1-3.4-7.5-7.5-7.5h-7.8c-4.1,0-7.5,3.4-7.5,7.5v21
	C-337.2,319.6-333.9,323-329.7,323z M-332,294.5c0-1.3,1-2.3,2.3-2.3h7.8c1.3,0,2.3,1,2.3,2.3v21c0,1.3-1,2.3-2.3,2.3h-7.8
	c-1.3,0-2.3-1-2.3-2.3C-332,315.5-332,294.5-332,294.5z"/>
<path d="M-298.9,323h7.8c4.1,0,7.5-3.4,7.5-7.5v-38.6c0-4.1-3.4-7.5-7.5-7.5h-7.8c-4.1,0-7.5,3.4-7.5,7.5v38.6
	C-306.4,319.6-303,323-298.9,323z M-301.2,276.9c0-1.3,1-2.3,2.3-2.3h7.8c1.3,0,2.3,1,2.3,2.3v38.6c0,1.3-1,2.3-2.3,2.3h-7.8
	c-1.3,0-2.3-1-2.3-2.3V276.9z"/>
<path d="M-268.1,323h7.8c4.1,0,7.5-3.4,7.5-7.5v-56.3c0-4.1-3.4-7.5-7.5-7.5h-7.8c-4.1,0-7.5,3.4-7.5,7.5v56.3
	C-275.6,319.6-272.2,323-268.1,323z M-270.4,259.3c0-1.3,1-2.3,2.3-2.3h7.8c1.3,0,2.3,1,2.3,2.3v56.3c0,1.3-1,2.3-2.3,2.3h-7.8
	c-1.3,0-2.3-1-2.3-2.3V259.3z"/>
<path d="M-252.6,331h-84.8c-1.4,0-2.6,1.2-2.6,2.6c0,1.4,1.2,2.6,2.6,2.6h84.8c1.4,0,2.6-1.2,2.6-2.6
	C-250,332.2-251.2,331-252.6,331z"/>
</svg>
