<?xml version="1.0" encoding="utf-8"?>
<!-- Generator: Adobe Illustrator 19.1.1, SVG Export Plug-In . SVG Version: 6.00 Build 0)  -->
<svg version="1.1" id="Capa_1" xmlns="http://www.w3.org/2000/svg" xmlns:xlink="http://www.w3.org/1999/xlink" x="0px" y="0px"
	 width="100px" height="100px" viewBox="-345 244 100 100" style="enable-background:new -345 244 100 100;" xml:space="preserve">
<style type="text/css">
	.st0{fill:#FFFFFF;}
</style>
<path class="st0" d="M-275.5,277c0-0.7-0.3-1.3-0.7-1.7c-0.9-0.9-2.5-0.9-3.5,0l-15.3,15.3l-15.3-15.3c-0.9-0.9-2.6-0.9-3.5,0
	c-0.5,0.5-0.7,1.1-0.7,1.7c0,0.7,0.3,1.3,0.7,1.7l15.3,15.3l-15.3,15.3c-1,1-1,2.5,0,3.5c0.9,0.9,2.5,0.9,3.5,0l15.3-15.3l15.3,15.3
	c0.5,0.5,1.1,0.7,1.7,0.7c0.7,0,1.3-0.3,1.7-0.7c1-1,1-2.5,0-3.5l-15.3-15.3l15.3-15.3C-275.8,278.3-275.5,277.7-275.5,277z"/>
<path class="st0" d="M-295,249c-24.8,0-45,20.2-45,45s20.2,45,45,45s45-20.2,45-45C-250,269.2-270.2,249-295,249z M-295,334.1
	c-22.1,0-40.1-18-40.1-40.1s18-40.1,40.1-40.1s40.1,18,40.1,40.1S-272.9,334.1-295,334.1z"/>
</svg>
