<?xml version="1.0" encoding="utf-8"?>
<!-- Generator: Adobe Illustrator 19.1.1, SVG Export Plug-In . SVG Version: 6.00 Build 0)  -->
<svg version="1.1" id="Capa_1" xmlns="http://www.w3.org/2000/svg" xmlns:xlink="http://www.w3.org/1999/xlink" x="0px" y="0px"
	 width="100px" height="94px" viewBox="-345 244 100 94" style="enable-background:new -345 244 100 94;" xml:space="preserve">
<style type="text/css">
	.st0{fill:#FFFFFF;}
</style>
<path class="st0" d="M-268.6,281.9c-0.8-0.8-2.1-1.3-3.2-1.3h-1.1c-2.3,0-4.1,1.8-4.1,4.1v12.5c0,2.3,1.8,4.1,4.1,4.1h11.5
	c2.3,0,4.1-1.8,4.1-4.1v-2.1c0-1.1-0.5-2.4-1.3-3.2L-268.6,281.9z M-261.8,296.8h-10.7v-11.7h0.7c0,0,0.1,0,0.1,0l9.9,9.9
	c0,0,0.1,0.1,0.1,0.1V296.8z"/>
<path class="st0" d="M-252.4,288.4l-12.8-12.8c-1.4-1.4-3.8-2.4-5.8-2.4h-8.9v-4.8c0-5.4-4.4-9.8-9.8-9.8h-40.4
	c-5.4,0-9.8,4.4-9.8,9.8v45.8c0,3.9,3.1,7,7,7h5.8c1,4.8,5.3,8.3,10.3,8.3c5,0,9.2-3.4,10.3-8.3h27.4c1,4.8,5.3,8.3,10.2,8.3
	c5,0,9.2-3.4,10.3-8.3h1.8c3.9,0,7-3.1,7-7v-19.9C-250,292.3-251,289.8-252.4,288.4z M-335.5,268.4c0-3,2.4-5.4,5.4-5.4h40.4
	c3,0,5.4,2.4,5.4,5.4v32.9h-51.1V268.4z M-317,324.9c-3.3,0-6-2.7-6-6c0-3.3,2.7-6,6-6s6,2.7,6,6C-311,322.2-313.7,324.9-317,324.9z
	 M-269.1,324.9c-3.3,0-6-2.7-6-6c0-3.3,2.7-6,6-6s6,2.7,6,6C-263.1,322.2-265.8,324.9-269.1,324.9z M-254.5,314.2
	c0,1.4-1.1,2.5-2.5,2.5h-1.8c-1-4.8-5.3-8.3-10.3-8.3c-5,0-9.2,3.4-10.2,8.3h-27.4c-1-4.8-5.3-8.3-10.3-8.3c-5,0-9.2,3.4-10.3,8.3
	h-5.8c-1.4,0-2.5-1.1-2.5-2.5v-8.3h51.3c2.4,0,4.3-1.9,4.3-4.3v-23.8h8.9c0.8,0,2.1,0.5,2.6,1.1l12.8,12.8c0.5,0.5,1.1,1.9,1.1,2.6
	C-254.5,294.2-254.5,314.2-254.5,314.2z"/>
</svg>
