<?xml version="1.0" encoding="utf-8"?>
<!-- Generator: Adobe Illustrator 19.1.1, SVG Export Plug-In . SVG Version: 6.00 Build 0)  -->
<svg version="1.1" id="Capa_1" xmlns="http://www.w3.org/2000/svg" xmlns:xlink="http://www.w3.org/1999/xlink" x="0px" y="0px"
	 width="100px" height="106px" viewBox="-345 244 100 106" style="enable-background:new -345 244 100 106;" xml:space="preserve">
<style type="text/css">
	.st0{fill:#FFFFFF;}
</style>
<path class="st0" d="M-259.7,276.5h-18.1c5.8-2.2,9.8-5.1,11.9-8.5c1.7-2.8,2.1-5.9,1.2-9.2c-1.5-5.7-6.8-9.8-12.7-9.8
	c-1.1,0-2.3,0.2-3.4,0.4c-7.1,1.9-11.7,11.2-14.4,19c-0.1,0-0.3,0-0.4,0c-2.3-6.2-6.2-13.7-12.1-15.3c-1-0.3-2-0.4-3-0.4
	c-5.3,0-9.9,3.5-11.2,8.6c-0.8,2.9-0.4,5.6,1.1,8.1c1.6,2.7,4.7,5.1,9.1,6.9h-18.6c-2.8,0-5.2,2.3-5.2,5.2v10.7
	c0,2.8,2.3,5.2,5.2,5.2h0.7v36.4c0,2.8,2.3,5.2,5.2,5.2h59c2.8,0,5.2-2.3,5.2-5.2v-36.4h0.7c2.8,0,5.2-2.3,5.2-5.2v-10.7
	C-254.5,278.8-256.8,276.5-259.7,276.5z M-295,273.4c2.6,0,4.4,1.1,5.2,3.1h-10.3C-299.4,274.5-297.6,273.4-295,273.4z
	 M-305.5,334.1h-19c-0.1,0-0.2-0.1-0.2-0.2v-36.4h19.2V334.1z M-305.5,292.5h-24.8c-0.1,0-0.2-0.1-0.2-0.2v-10.7
	c0-0.1,0.1-0.2,0.2-0.2h24.8V292.5z M-304.3,273.8c-6.3-1.7-10.6-4.1-12.2-6.8c-0.8-1.3-1-2.7-0.5-4.3c0.8-2.9,3.5-5,6.5-5
	c0.6,0,1.2,0.1,1.7,0.2c3,0.8,6,5,8.6,11.7C-302,270.6-303.4,272-304.3,273.8z M-289.4,334.1h-11.1v-36.6h11.1V334.1z M-289.4,292.5
	h-11.1v-11.1h11.1V292.5z M-290.2,269.4c3.1-8.8,6.9-14.2,10.8-15.2c0.7-0.2,1.4-0.3,2.1-0.3c3.7,0,7,2.5,8,6.1
	c0.5,2,0.3,3.8-0.7,5.4c-2.1,3.4-7.6,6.4-15.6,8.4C-286.7,271.9-288.2,270.4-290.2,269.4z M-265.3,333.8c0,0.1-0.1,0.2-0.2,0.2h-19
	v-36.6h19.2V333.8z M-259.4,292.3c0,0.1-0.1,0.2-0.2,0.2h-24.8v-11.1h24.8c0.1,0,0.2,0.1,0.2,0.2V292.3z"/>
</svg>
