<?xml version="1.0" encoding="utf-8"?>
<!-- Generator: Adobe Illustrator 19.1.1, SVG Export Plug-In . SVG Version: 6.00 Build 0)  -->
<svg version="1.1" id="Capa_1" xmlns="http://www.w3.org/2000/svg" xmlns:xlink="http://www.w3.org/1999/xlink" x="0px" y="0px"
	 width="100px" height="105px" viewBox="-345 244 100 105" style="enable-background:new -345 244 100 105;" xml:space="preserve">
<style type="text/css">
	.st0{fill:#FFFFFF;}
</style>
<path class="st0" d="M-277.6,282.2c0-1.4-1.1-2.5-2.5-2.5h-30c-1.4,0-2.5,1.1-2.5,2.5c0,1.4,1.1,2.5,2.5,2.5h30
	C-278.7,284.6-277.6,283.5-277.6,282.2z"/>
<path class="st0" d="M-310,270.5h30c1.4,0,2.5-1.1,2.5-2.5s-1.1-2.5-2.5-2.5h-30c-1.4,0-2.5,1.1-2.5,2.5
	C-312.4,269.4-311.3,270.5-310,270.5z"/>
<path class="st0" d="M-252.9,285.4c-1.8-1-4.2-0.8-6.5,0.5l-0.1,0v-25c0-6.6-5.3-11.9-11.9-11.9h-47.3c-6.6,0-11.9,5.3-11.9,11.9v25
	l-0.1,0c-2.2-1.4-4.6-1.6-6.5-0.5c-1.9,1-2.9,3.2-2.9,5.8v35.9c0,6.6,5.3,11.9,11.9,11.9h66.2c6.6,0,11.9-5.3,11.9-11.9v-35.9
	C-250,288.5-251.1,286.4-252.9,285.4z M-325.6,260.9c0-3.9,3.1-7,7-7h47.3c3.9,0,7,3.1,7,7v28L-289,304c-1.5,0.9-3.7,1.5-6,1.5
	c-2.3,0-4.4-0.5-6-1.5l-24.7-15.1V260.9z M-254.9,327.1c0,3.9-3.1,7-7,7h-66.2c-3.9,0-7-3.1-7-7v-35.9c0-1,0.3-1.4,0.4-1.5
	c0,0,0.1,0,0.2,0c0.2,0,0.6,0,1.3,0.5l29.6,18.1c2.3,1.4,5.4,2.2,8.5,2.2c3.2,0,6.2-0.8,8.5-2.2l29.6-18.1c0.7-0.4,1.2-0.5,1.3-0.5
	c0.1,0,0.2,0,0.2,0c0.1,0.1,0.4,0.5,0.4,1.5C-254.9,291.2-254.9,327.1-254.9,327.1z"/>
</svg>
