<svg xmlns="http://www.w3.org/2000/svg" xmlns:xlink="http://www.w3.org/1999/xlink" version="1.1" x="0px" y="0px" viewBox="0 0 100 125" enable-background="new 0 0 100 100" xml:space="preserve"><path d="M50,5C25.187,5,5,25.187,5,50c0,24.813,20.187,45,45,45c24.813,0,45-20.188,45-45C95,25.187,74.813,5,50,5z M50,90.08  C27.9,90.08,9.92,72.1,9.92,50C9.92,27.9,27.9,9.92,50,9.92C72.1,9.92,90.08,27.9,90.08,50C90.08,72.1,72.1,90.08,50,90.08z"/><path d="M41.268,50l17.011-17.009c0.957-0.96,0.957-2.521-0.002-3.479c-0.928-0.929-2.549-0.929-3.479,0l-18.081,18.08  c-1.327,1.328-1.327,3.488,0,4.816l18.081,18.08c0.465,0.465,1.082,0.721,1.739,0.721s1.274-0.256,1.739-0.721  s0.721-1.082,0.721-1.739s-0.256-1.274-0.721-1.739L41.268,50z"/><text x="0" y="115" fill="#000000" font-size="5px" font-weight="bold" font-family="'Helvetica Neue', Helvetica, Arial-Unicode, Arial, Sans-serif">Created by David</text><text x="0" y="120" fill="#000000" font-size="5px" font-weight="bold" font-family="'Helvetica Neue', Helvetica, Arial-Unicode, Arial, Sans-serif">from the Noun Project</text></svg>