<?xml version="1.0" encoding="utf-8"?>
<!-- Generator: Adobe Illustrator 19.1.1, SVG Export Plug-In . SVG Version: 6.00 Build 0)  -->
<svg version="1.1" id="Capa_1" xmlns="http://www.w3.org/2000/svg" xmlns:xlink="http://www.w3.org/1999/xlink" x="0px" y="0px"
	 width="100px" height="105px" viewBox="-345 244 100 105" style="enable-background:new -345 244 100 105;" xml:space="preserve">
<style type="text/css">
	.st0{fill:#FFFFFF;}
</style>
<path class="st0" d="M-251.5,290.3l-15.8-15.8c-0.9-0.9-2.6-0.9-3.5,0c-0.5,0.5-0.7,1.1-0.7,1.7c0,0.7,0.3,1.3,0.7,1.7l13.6,13.6
	h-47.3c-1.4,0-2.5,1.1-2.5,2.5c0,1.4,1.1,2.5,2.5,2.5h47.3l-13.6,13.6c-0.5,0.5-0.7,1.1-0.7,1.7c0,0.7,0.3,1.3,0.7,1.7
	c0.5,0.5,1.1,0.7,1.7,0.7c0.7,0,1.3-0.3,1.7-0.7l15.8-15.8c1-1,1.6-2.3,1.6-3.7C-250,292.6-250.6,291.3-251.5,290.3z"/>
<path class="st0" d="M-280.8,312c-1.4,0-2.5,1.1-2.5,2.5v12.6c0,3.9-3.1,7-7,7h-37.8c-3.9,0-7-3.1-7-7v-66.2c0-3.9,3.1-7,7-7h37.8
	c3.9,0,7,3.1,7,7v12.6c0,1.4,1.1,2.5,2.5,2.5c1.4,0,2.5-1.1,2.5-2.5v-12.6c0-6.6-5.3-11.9-11.9-11.9h-37.8
	c-6.6,0-11.9,5.3-11.9,11.9v66.2c0,6.6,5.3,11.9,11.9,11.9h37.8c6.6,0,11.9-5.3,11.9-11.9v-12.6C-278.4,313.1-279.5,312-280.8,312z"
	/>
</svg>
