<?xml version="1.0" encoding="utf-8"?>
<!-- Generator: Adobe Illustrator 19.1.1, SVG Export Plug-In . SVG Version: 6.00 Build 0)  -->
<svg version="1.1" id="Capa_1" xmlns="http://www.w3.org/2000/svg" xmlns:xlink="http://www.w3.org/1999/xlink" x="0px" y="0px"
	 width="100px" height="100px" viewBox="-345 244 100 100" style="enable-background:new -345 244 100 100;" xml:space="preserve">
<style type="text/css">
	.st0{fill:#FFFFFF;}
</style>
<path class="st0" d="M-317.9,264.3h65.4c1.4,0,2.5-1.1,2.5-2.5s-1.1-2.5-2.5-2.5h-65.4c-1.4,0-2.5,1.1-2.5,2.5
	S-319.3,264.3-317.9,264.3z"/>
<path class="st0" d="M-252.5,323.7h-65.4c-1.4,0-2.5,1.1-2.5,2.5s1.1,2.5,2.5,2.5h65.4c1.4,0,2.5-1.1,2.5-2.5
	S-251.1,323.7-252.5,323.7z"/>
<path class="st0" d="M-252.5,291.5h-65.4c-1.4,0-2.5,1.1-2.5,2.5c0,1.4,1.1,2.5,2.5,2.5h65.4c1.4,0,2.5-1.1,2.5-2.5
	C-250,292.6-251.1,291.5-252.5,291.5z"/>
<path class="st0" d="M-334.6,256.4c-3,0-5.4,2.4-5.4,5.4c0,3,2.4,5.4,5.4,5.4c3,0,5.4-2.4,5.4-5.4
	C-329.2,258.8-331.6,256.4-334.6,256.4z"/>
<path class="st0" d="M-334.6,288.6c-3,0-5.4,2.4-5.4,5.4s2.4,5.4,5.4,5.4c3,0,5.4-2.4,5.4-5.4S-331.6,288.6-334.6,288.6z"/>
<path class="st0" d="M-334.6,320.8c-3,0-5.4,2.4-5.4,5.4c0,3,2.4,5.4,5.4,5.4c3,0,5.4-2.4,5.4-5.4
	C-329.2,323.2-331.6,320.8-334.6,320.8z"/>
</svg>
