<?xml version="1.0" encoding="utf-8"?>
<!-- Generator: Adobe Illustrator 19.1.1, SVG Export Plug-In . SVG Version: 6.00 Build 0)  -->
<svg version="1.1" id="Capa_1" xmlns="http://www.w3.org/2000/svg" xmlns:xlink="http://www.w3.org/1999/xlink" x="0px" y="0px"
	 width="100px" height="103px" viewBox="-345 244 100 103" style="enable-background:new -345 244 100 103;" xml:space="preserve">
<style type="text/css">
	.st0{fill:#FFFFFF;}
</style>
<path class="st0" d="M-314.5,291.1c0.7,1.1,1.9,1.7,3.1,1.7c1.2,0,2.4-0.6,3.1-1.7l4.3-6.4c0.8-1.1,0.4-2.7-0.7-3.4
	c-1.1-0.7-2.7-0.4-3.4,0.7l-3.3,4.9l-0.2-0.3c-0.7-1.1-2.3-1.4-3.4-0.7c-0.5,0.4-0.9,0.9-1,1.6c-0.1,0.6,0,1.3,0.4,1.8L-314.5,291.1
	z"/>
<path class="st0" d="M-278.1,286.4h-19.3c-1.4,0-2.5,1.1-2.5,2.5c0,1.4,1.1,2.5,2.5,2.5h19.3c1.4,0,2.5-1.1,2.5-2.5
	C-275.6,287.5-276.7,286.4-278.1,286.4z"/>
<path class="st0" d="M-304.7,297.4c-1.1-0.7-2.7-0.4-3.4,0.7l-3.3,4.9l-0.2-0.3c-0.7-1.1-2.3-1.4-3.4-0.7c-1.1,0.8-1.4,2.3-0.7,3.4
	l1.2,1.8c0.7,1.1,1.9,1.7,3.1,1.7c1.2,0,2.4-0.6,3.1-1.7l4.3-6.4c0.4-0.5,0.5-1.2,0.4-1.8C-303.8,298.3-304.2,297.8-304.7,297.4z"/>
<path class="st0" d="M-278.1,302.4h-19.3c-1.4,0-2.5,1.1-2.5,2.5c0,1.4,1.1,2.5,2.5,2.5h19.3c1.4,0,2.5-1.1,2.5-2.5
	C-275.6,303.5-276.7,302.4-278.1,302.4z"/>
<path class="st0" d="M-304.7,313.5c-1.1-0.7-2.7-0.4-3.4,0.7l-3.3,4.9l-0.2-0.3c-0.7-1.1-2.3-1.4-3.4-0.7c-1.1,0.8-1.4,2.3-0.7,3.4
	l1.2,1.8c0.7,1.1,1.9,1.7,3.1,1.7c1.2,0,2.4-0.6,3.1-1.7l4.3-6.4c0.4-0.5,0.5-1.2,0.4-1.8C-303.8,314.4-304.2,313.8-304.7,313.5z"/>
<path class="st0" d="M-278.1,318.5h-19.3c-1.4,0-2.5,1.1-2.5,2.5c0,1.4,1.1,2.5,2.5,2.5h19.3c1.4,0,2.5-1.1,2.5-2.5
	C-275.6,319.6-276.7,318.5-278.1,318.5z"/>
<path class="st0" d="M-274.2,264.7h-6.7c-1.3-1.1-3-2.2-5.3-3.1c0.4-1,0.6-2.1,0.6-3.3c0-5.2-4.2-9.4-9.4-9.4s-9.4,4.2-9.4,9.4
	c0,1.2,0.2,2.3,0.6,3.3c-2.2,0.9-4,1.9-5.3,3.1h-6.7c-6.5,0-11.7,5.3-11.7,11.7v50.9c0,6.5,5.3,11.7,11.7,11.7h41.6
	c6.5,0,11.7-5.3,11.7-11.7v-50.9C-262.5,270-267.7,264.7-274.2,264.7z M-295,253.9c2.5,0,4.5,2,4.5,4.5c0,2.5-2,4.5-4.5,4.5
	s-4.5-2-4.5-4.5C-299.5,255.9-297.5,253.9-295,253.9z M-300.7,265.8c1.6,1.2,3.6,2,5.7,2s4.1-0.7,5.7-2c5.3,1.6,7,4.4,7.6,5.8h-26.6
	C-307.7,270.2-306,267.4-300.7,265.8z M-274.2,334.1h-41.6c-3.7,0-6.8-3-6.8-6.8v-50.9c0-3.7,3-6.8,6.8-6.8h3.1
	c-0.5,1.3-0.7,2.2-0.7,2.3c-0.1,1.2,0.2,2.4,1,3.2s1.9,1.4,3.1,1.4h28.6c1.2,0,2.3-0.5,3.1-1.4c0.8-0.9,1.1-2.1,1-3.2
	c0-0.1-0.1-1-0.7-2.3h3.1c3.7,0,6.8,3,6.8,6.8v50.9h0C-267.4,331-270.5,334.1-274.2,334.1z"/>
</svg>
