<?xml version="1.0" encoding="utf-8"?>
<!-- Generator: Adobe Illustrator 19.1.1, SVG Export Plug-In . SVG Version: 6.00 Build 0)  -->
<svg version="1.1" id="Capa_1" xmlns="http://www.w3.org/2000/svg" xmlns:xlink="http://www.w3.org/1999/xlink" x="0px" y="0px"
	 width="100px" height="104px" viewBox="-345 244 100 104" style="enable-background:new -345 244 100 104;" xml:space="preserve">
<style type="text/css">
	.st0{fill:#FFFFFF;}
</style>
<path class="st0" d="M-295,275.9c-10,0-18.1,8.1-18.1,18.1c0,10,8.1,18.1,18.1,18.1s18.1-8.1,18.1-18.1
	C-276.9,284-285,275.9-295,275.9z M-295,307.1c-7.2,0-13.1-5.9-13.1-13.1c0-7.2,5.9-13.1,13.1-13.1s13.1,5.9,13.1,13.1
	C-281.9,301.2-287.8,307.1-295,307.1z"/>
<path class="st0" d="M-252.9,307c-0.5-1.9-1.7-3.4-3.3-4.4l-5.1-3c-0.4-0.2-0.7-1-0.7-1.4c0,0,0.3-1.8,0.3-4.2
	c0-2.4-0.3-4.1-0.3-4.2c-0.1-0.4,0.3-1.2,0.7-1.4l5.1-3c1.7-1,2.8-2.5,3.3-4.4c0.5-1.9,0.2-3.8-0.7-5.5l-4.7-8.2
	c-1-1.7-2.5-2.8-4.4-3.3c-1.8-0.5-3.8-0.2-5.5,0.7l-5.1,3c-0.1,0.1-0.4,0.1-0.6,0.1c-0.4,0-0.8-0.1-0.9-0.2c0,0-1.4-1.2-3.5-2.4
	c-1.9-1.1-3.5-1.7-3.8-1.8c-0.4-0.2-0.9-0.9-0.9-1.3v-5.9c0-4-3.2-7.2-7.2-7.2h-9.5c-4,0-7.2,3.2-7.2,7.2v5.9c0,0.4-0.5,1.1-0.9,1.3
	c-0.3,0.1-1.9,0.8-3.8,1.8c-2,1.2-3.4,2.3-3.5,2.4c-0.2,0.1-0.5,0.3-0.9,0.3c-0.3,0-0.5,0-0.6-0.1l-5.1-3c-1.6-0.9-3.6-1.2-5.5-0.7
	c-1.9,0.5-3.4,1.7-4.4,3.3l-4.7,8.2c-1,1.7-1.2,3.6-0.7,5.5c0.5,1.9,1.7,3.4,3.3,4.4l5.1,3c0.4,0.2,0.7,1,0.7,1.4
	c0,0.1-0.3,1.8-0.3,4.2c0,2.4,0.3,4.1,0.3,4.2c0.1,0.4-0.3,1.2-0.7,1.4l-5.1,3c-1.7,1-2.8,2.5-3.3,4.4c-0.5,1.9-0.2,3.8,0.7,5.5
	l4.7,8.2c1.3,2.2,3.7,3.6,6.2,3.6c1.3,0,2.5-0.3,3.6-1l5.1-3c0.1-0.1,0.4-0.1,0.6-0.1c0.4,0,0.8,0.1,0.9,0.3c0.1,0,1.5,1.2,3.5,2.4
	c2.1,1.2,3.8,1.8,3.8,1.8c0.4,0.2,0.9,0.9,0.9,1.3v5.9c0,4,3.2,7.2,7.2,7.2h9.5c4,0,7.2-3.2,7.2-7.2v-5.9c0-0.4,0.5-1.1,0.9-1.3
	c0,0,1.7-0.7,3.8-1.9c2.1-1.2,3.5-2.4,3.5-2.4c0.2-0.1,0.5-0.3,0.9-0.3c0.3,0,0.5,0,0.6,0.1l5.1,3c1.1,0.6,2.3,1,3.6,1
	c0.6,0,1.3-0.1,1.9-0.2c1.9-0.5,3.4-1.7,4.4-3.3l4.7-8.2C-252.7,310.8-252.5,308.8-252.9,307z M-257.9,309.9l-4.7,8.2
	c-0.3,0.5-0.8,0.9-1.4,1.1c-0.6,0.2-1.2,0.1-1.7-0.2l-5.1-3c-0.9-0.5-2-0.8-3.1-0.8c-1.5,0-3,0.5-4,1.4c0,0-1.2,1-2.8,1.9
	c-1.6,1-3.1,1.5-3.1,1.5c-2.3,0.9-4.1,3.4-4.1,5.9v5.9c0,1.3-1,2.3-2.3,2.3h-9.5c-1.3,0-2.3-1-2.3-2.3v-5.9c0-2.5-1.7-5-4.1-5.9
	c0,0-1.4-0.6-3.1-1.5c-1.6-0.9-2.8-1.9-2.8-1.9c0,0,0,0,0,0l-0.1-0.1c-1.1-0.9-2.5-1.3-4-1.3c-1.1,0-2.2,0.3-3.1,0.8l-3.5,2
	l-0.3,0.2c-0.3,0.2-0.7,0.4-1.4,0.8c-1,0.6-2.5,0.2-3.1-0.8l-4.7-8.2c-0.3-0.5-0.4-1.1-0.2-1.7c0.2-0.6,0.5-1.1,1.1-1.4l0.4-0.2
	c0.2-0.1,0.4-0.2,0.5-0.3l4.2-2.4c2.1-1.2,3.5-4,3.1-6.5c0-0.3-0.2-1.6-0.2-3.4c0-1.9,0.2-3.3,0.2-3.4c0.4-2.4-0.9-5.2-3.1-6.5
	c-1.8-1-2.8-1.6-3.4-1.9l0,0l-1.8-1c-0.5-0.3-0.9-0.8-1-1.4c-0.2-0.6-0.1-1.2,0.2-1.7l4.7-8.2c0.3-0.5,0.8-0.9,1.4-1.1
	c0.6-0.2,1.2-0.1,1.7,0.2l5.1,3c0.9,0.5,2,0.8,3.1,0.8c1.5,0,3-0.5,4-1.4c0,0,1.2-1,2.9-1.9c1.6-1,3.1-1.5,3.1-1.5
	c2.3-0.9,4.1-3.4,4.1-5.9v-5.9c0-1.3,1-2.3,2.3-2.3h9.5c1.3,0,2.3,1,2.3,2.3v5.9c0,2.5,1.7,5,4.1,5.9c0,0,1.4,0.6,3.1,1.5
	c1.6,0.9,2.7,1.8,2.9,1.9c1.1,0.9,2.5,1.3,4,1.3c1.1,0,2.2-0.3,3.1-0.8l5.1-3c0.5-0.3,1.1-0.4,1.7-0.2c0.6,0.2,1.1,0.5,1.4,1.1
	l4.7,8.2c0.3,0.5,0.4,1.1,0.2,1.7c-0.2,0.6-0.5,1.1-1.1,1.4l-5.1,3c-2.1,1.2-3.5,4-3.1,6.5c0,0.3,0.2,1.6,0.2,3.4
	c0,1.9-0.2,3.3-0.2,3.4c-0.4,2.4,0.9,5.2,3.1,6.5l5.1,3c0.5,0.3,0.9,0.8,1.1,1.4C-257.5,308.8-257.6,309.4-257.9,309.9z"/>
</svg>
