<?xml version="1.0" encoding="utf-8"?>
<!-- Generator: Adobe Illustrator 19.1.1, SVG Export Plug-In . SVG Version: 6.00 Build 0)  -->
<svg version="1.1" id="Capa_1" xmlns="http://www.w3.org/2000/svg" xmlns:xlink="http://www.w3.org/1999/xlink" x="0px" y="0px"
	 width="100px" height="103.5px" viewBox="-345 244 100 103.5" style="enable-background:new -345 244 100 103.5;"
	 xml:space="preserve">
<style type="text/css">
	.st0{fill:#FFFFFF;}
</style>
<path class="st0" d="M-295,296.5c13.1,0,23.7-10.6,23.7-23.7c0-13.1-10.6-23.7-23.7-23.7s-23.7,10.6-23.7,23.7
	C-318.7,285.8-308.1,296.5-295,296.5z M-295,253.9c10.4,0,18.8,8.4,18.8,18.8c0,10.4-8.4,18.8-18.8,18.8s-18.8-8.4-18.8-18.8
	C-313.8,262.4-305.4,253.9-295,253.9z"/>
<path class="st0" d="M-295,303.4c-35.5,0-43.2,17.8-43.2,24.7c0,6.8,5.6,10.9,11.1,10.9h64.3c5.4,0,11.1-4.1,11.1-10.9
	C-251.8,321.2-259.5,303.4-295,303.4z M-262.9,334.1h-64.3c-3,0-6.2-2.1-6.2-6c0-5.1,7-19.8,38.3-19.8s38.3,14.7,38.3,19.8
	C-256.7,332-259.9,334.1-262.9,334.1z"/>
</svg>
