<?xml version="1.0" encoding="utf-8"?>
<!-- Generator: Adobe Illustrator 19.1.1, SVG Export Plug-In . SVG Version: 6.00 Build 0)  -->
<svg version="1.1" id="Capa_1" xmlns="http://www.w3.org/2000/svg" xmlns:xlink="http://www.w3.org/1999/xlink" x="0px" y="0px"
	 width="100px" height="100px" viewBox="-345 244 100 100" style="enable-background:new -345 244 100 100;" xml:space="preserve">
<style type="text/css">
	.st0{fill:#FFFFFF;}
</style>
<path class="st0" d="M-298.2,320.1c-3.8,0-7,3.1-7,7c0,3.8,3.1,7,7,7c3.8,0,7-3.1,7-7C-291.3,323.2-294.4,320.1-298.2,320.1z"/>
<path class="st0" d="M-271.4,320.1c-3.8,0-7,3.1-7,7s3.1,7,7,7c3.8,0,7-3.1,7-7S-267.6,320.1-271.4,320.1z"/>
<path class="st0" d="M-251.1,272.3c-1.1-1.5-2.9-2.3-5-2.3h-60l-1.9-6.6c-1.6-5.6-7-10.2-12.2-10.2l-7.4,0c-1.4,0-2.5,1.1-2.5,2.5
	c0,1.4,1.1,2.5,2.5,2.5l7.4,0c3,0,6.4,3.1,7.4,6.6l12.6,44.5c1,3.6,4.7,6.4,8.5,6.4h33.5c3.7,0,7.5-2.8,8.5-6.4l9.3-31.5
	C-249.7,275.8-250,273.8-251.1,272.3z M-255,276.4l-9.3,31.5c-0.4,1.5-2.2,2.8-3.8,2.8h-33.5c-1.5,0-3.3-1.3-3.7-2.8l-9.3-33h58.6
	c0.5,0,0.8,0.1,1,0.4C-254.9,275.5-254.9,275.9-255,276.4z"/>
</svg>
